<!-- Generated by IcoMoon.io -->
<svg version="1.1" xmlns="http://www.w3.org/2000/svg" width="768" height="768" viewBox="0 0 768 768">
    <title></title>
    <g id="icomoon-ignore">
    </g>
    <path fill="#000"
          d="M608 64h-448c-54.4 0-96 41.6-96 96v512c0 12.8 6.4 25.6 19.2 28.8 3.2 3.2 9.6 3.2 12.8 3.2 9.6 0 16-3.2 22.4-9.6l118.4-118.4h371.2c54.4 0 96-41.6 96-96v-320c0-54.4-41.6-96-96-96zM640 480c0 19.2-12.8 32-32 32h-384c-9.6 0-16 3.2-22.4 9.6l-73.6 73.6v-435.2c0-19.2 12.8-32 32-32h448c19.2 0 32 12.8 32 32v320z"></path>
</svg>
