<!-- Generated by IcoMoon.io -->
<svg version="1.1" xmlns="http://www.w3.org/2000/svg" width="1024" height="1024" viewBox="0 0 1024 1024">
    <title></title>
    <g id="icomoon-ignore">
    </g>
    <path fill="#000"
          d="M1024 256c0-44.992-30.624-83.456-74.432-93.568l-416.416-96.096c-6.976-1.568-14.080-2.336-21.152-2.336s-14.176 0.768-21.6 2.432l-415.968 96c-43.84 10.112-74.432 48.576-74.432 93.568s30.624 83.456 74.4 93.568l85.6 19.744v270.688c0 84.928 97.216 160 352 160s352-75.072 352-160v-270.688l85.568-19.744c43.808-10.112 74.432-48.576 74.432-93.568zM800 640c0 35.36-96 96-288 96s-288-60.64-288-96v-255.904l266.816 61.568c6.976 1.568 14.112 2.336 21.184 2.336s14.208-0.768 21.568-2.432l266.432-61.472v255.904zM519.2 383.2c-2.4 0.512-4.8 0.8-7.2 0.8s-4.832-0.288-7.2-0.8l-416-96c-14.528-3.36-24.8-16.288-24.8-31.2s10.272-27.84 24.8-31.2l416-96c2.368-0.512 4.768-0.8 7.2-0.8s4.832 0.288 7.2 0.8l416 96c14.496 3.36 24.8 16.288 24.8 31.2s-10.304 27.84-24.8 31.2l-416 96zM928 416c0-17.696 14.304-32 32-32 17.664 0 32 14.304 32 32v288c0 17.696-14.336 32-32 32-17.696 0-32-14.304-32-32v-288zM960 768c35.328 0 64 92.672 64 128s-28.672 64-64 64c-35.36 0-64-28.672-64-64s28.64-128 64-128z"></path>
</svg>
